<svg fill="none" viewBox="0 0 444 105" xmlns="http://www.w3.org/2000/svg" width="212" height="49">
    <path d="m62.6 50.3l-18.3-7.6v-7.3l18.3 9.5v5.4z" fill="#507134"/>
    <path d="m59.1 56.8l-21.2-2.9v-7.4l21.2 5.4v4.9z" fill="#507134"/>
    <path d="m57.2 64.8l-28.3-0.6v-6.6l28.3 2.3v4.9z" fill="#507134"/>
    <path d="m63.1 72.9h-43.6v-6.6l43.6 1v5.6z" fill="#507134"/>
    <path d="m69.2 79.3l-40.3 3.3v-6.6l40.3-1.4v4.7z" fill="#507134"/>
    <path d="m63.1 87.7l-25.2 5.1v-6.6l25.2-3.6v5.1z" fill="#507134"/>
    <path d="m63.1 95l-18.5 9v-6.6l18.5-7.6v5.2z" fill="#507134"/>
    <g fill="#000" opacity=".5">
    <path d="m62.6 50.3l-18.3-7.6v-7.3l18.3 9.5v5.4z" opacity=".5"/>
    <path d="m59.1 56.8l-21.2-2.9v-7.4l21.2 5.4v4.9z" opacity=".5"/>
    <path d="m57.2 64.8l-28.3-0.6v-6.6l28.3 2.3v4.9z" opacity=".5"/>
    <path d="m63.1 72.9h-43.6v-6.6l43.6 1v5.6z" opacity=".5"/>
    <path d="m69.2 79.3l-40.3 3.3v-6.6l40.3-1.4v4.7z" opacity=".5"/>
    <path d="m63.1 87.7l-25.2 5.1v-6.6l25.2-3.6v5.1z" opacity=".5"/>
    <path d="m63.1 95l-18.5 9v-6.6l18.5-7.6v5.2z" opacity=".5"/>
    </g>
    <path d="m0.39999 50.3l43.9-7.6v-7.3l-43.9 9.5v5.4z" fill="#507134"/>
    <path d="m5.4 56.8l32.5-2.9v-7.4l-32.5 5.4v4.9z" fill="#507134"/>
    <path d="m0.7 65.7l28.2-1.5v-6.6l-28.2 2.3v5.8z" fill="#507134"/>
    <path d="m0.39999 72.9h19.1v-6.6l-19.1 1v5.6z" fill="#507134"/>
    <path d="m9.5 81.3l19.4 1.3v-6.6h-19.4v5.3z" fill="#507134"/>
    <path d="m0.39999 87.7l37.5 5.1v-6.6l-37.5-3.6v5.1z" fill="#507134"/>
    <path d="m18.4 99.5l26.2 4.5v-6.6l-26.2-4.5v6.6z" fill="#507134"/>
    <path d="m30.5 35.5v-12.4l-11-6.1v-3.5" stroke="#507134" stroke-linecap="round" stroke-linejoin="round" stroke-miterlimit="10" stroke-width="2"/>
    <path d="m36.5 35.5v-12.4l7-4.2v-4.4" stroke="#507134" stroke-linecap="round" stroke-linejoin="round" stroke-miterlimit="10" stroke-width="2"/>
    <path d="m40.3 13.5l-9 5.2" stroke="#507134" stroke-linecap="round" stroke-linejoin="round" stroke-miterlimit="10" stroke-width="2"/>
    <path d="m27.9 15.7l4.6-2.5v-4.7" stroke="#507134" stroke-linecap="round" stroke-linejoin="round" stroke-miterlimit="10" stroke-width="2"/>
    <path d="m36.1 29.6l10.5-6.3" stroke="#507134" stroke-linecap="round" stroke-linejoin="round" stroke-miterlimit="10" stroke-width="2"/>
    <path d="M24.5 31.5V26L16.9 21.6" stroke="#507134" stroke-linecap="round" stroke-linejoin="round" stroke-miterlimit="10" stroke-width="2"/>
    <path d="m14.1 23.1c1.8778 0 3.4-1.5222 3.4-3.4s-1.5222-3.4-3.4-3.4-3.4 1.5222-3.4 3.4 1.5222 3.4 3.4 3.4z" stroke="#507134" stroke-linecap="round" stroke-linejoin="round" stroke-miterlimit="10" stroke-width="2"/>
    <path d="m19.8 13.8c1.8778 0 3.4-1.5222 3.4-3.4 0-1.8777-1.5222-3.4-3.4-3.4s-3.4 1.5222-3.4 3.4c0 1.8778 1.5222 3.4 3.4 3.4z" stroke="#507134" stroke-linecap="round" stroke-linejoin="round" stroke-miterlimit="10" stroke-width="2"/>
    <path d="m32.1 8.7c1.8778 0 3.4-1.5222 3.4-3.4 0-1.8778-1.5222-3.4-3.4-3.4s-3.4 1.5222-3.4 3.4c0 1.8778 1.5222 3.4 3.4 3.4z" stroke="#507134" stroke-linecap="round" stroke-linejoin="round" stroke-miterlimit="10" stroke-width="2"/>
    <path d="m42.9 14.5c1.8778 0 3.4-1.5223 3.4-3.4 0-1.8778-1.5222-3.4-3.4-3.4s-3.4 1.5222-3.4 3.4c0 1.8777 1.5222 3.4 3.4 3.4z" stroke="#507134" stroke-linecap="round" stroke-linejoin="round" stroke-miterlimit="10" stroke-width="2"/>
    <path d="m49.3 24.6c1.8778 0 3.4-1.5222 3.4-3.4s-1.5222-3.4-3.4-3.4-3.4 1.5222-3.4 3.4 1.5222 3.4 3.4 3.4z" stroke="#507134" stroke-linecap="round" stroke-linejoin="round" stroke-miterlimit="10" stroke-width="2"/>
    <path d="m87.7 1.8v102.3" stroke="#507134" stroke-miterlimit="10" stroke-width="3"/>
    <path d="m123.7 5.6c0 2.1-1.4 3.4-3.8 3.4h-2.5v3.1h-1.1v-9.7h3.6c2.4 0 3.8 1.2 3.8 3.2zm-1 0.1c0-1.5-1-2.3-2.8-2.3h-2.5v4.6h2.5c1.8 0 2.8-0.8 2.8-2.3z" fill="#507134"/>
    <path d="m131.9 12.1l-2-3.1h-0.6-2.6v3.1h-1.1v-9.7h3.7c2.4 0 3.8 1.2 3.8 3.2 0 1.6-0.8 2.7-2.2 3.1l2.3 3.3h-1.3v0.1zm-2.6-4.1c1.8 0 2.8-0.8 2.8-2.3s-1-2.3-2.8-2.3h-2.6v4.6h2.6z" fill="#507134"/>
    <path d="m144.8 7.2c0 2.7-2.2 4.9-5.1 4.9-2.8 0-5.1-2.2-5.1-4.9s2.2-4.9 5.1-4.9c2.9 0.1 5.1 2.2 5.1 4.9zm-9 0c0 2.1 1.8 3.9 4 3.9s3.9-1.7 3.9-3.9c0-2.1-1.8-3.8-3.9-3.8-2.2 0-4 1.7-4 3.8z" fill="#507134"/>
    <path d="m153 2.4v1h-5.1v3.5h4.6v1h-4.6v4.2h-1.1v-9.7h6.2z" fill="#507134"/>
    <path d="m154.9 11.5c0 0.4-0.3 0.7-0.7 0.7s-0.7-0.3-0.7-0.7 0.3-0.7 0.7-0.7 0.7 0.3 0.7 0.7z" fill="#507134"/>
    <path d="m167.4 9.6h-5.3l-1.1 2.5h-1.2l4.3-9.7h1.1l4.3 9.7h-1.2l-0.9-2.5zm-0.5-1l-2.2-5-2.2 5h4.4z" fill="#507134"/>
    <path d="m174 8.7v3.4h-1.1v-3.4l-3.8-6.3h1.2l3.1 5.1 3.1-5.1h1.1l-3.6 6.3z" fill="#507134"/>
    <path d="m188.3 7.2c0 2.7-2.2 4.9-5.1 4.9-2.8 0-5.1-2.2-5.1-4.9s2.2-4.9 5.1-4.9c2.9 0.1 5.1 2.2 5.1 4.9zm-9 0c0 2.1 1.8 3.9 4 3.9s3.9-1.7 3.9-3.9c0-2.1-1.8-3.8-3.9-3.8-2.2 0-4 1.7-4 3.8z" fill="#507134"/>
    <path d="m199.3 7.2c0 2.8-2.2 4.8-5 4.8h-3.9v-9.6h3.9c2.8 0 5 2.1 5 4.8zm-1.2 0c0-2.2-1.7-3.8-3.9-3.8h-2.8v7.6h2.8c2.2 0 3.9-1.6 3.9-3.8z" fill="#507134"/>
    <path d="m207.8 2.4v1h-5.4v3.3h4.9v1h-4.9v3.3h5.6v1.1h-6.7v-9.7h6.5z" fill="#507134"/>
    <path d="m211.4 2.4v8.6h4.2v1.1h-5.3v-9.7h1.1z" fill="#507134"/>
    <path d="m224 2.4v1h-5.5v3.3h4.9v1h-4.9v3.3h5.7v1.1h-6.8v-9.7h6.6z" fill="#507134"/>
    <path d="m236.7 9.6h-5.3l-1.1 2.5h-1.2l4.3-9.7h1.1l4.3 9.7h-1.2l-0.9-2.5zm-0.4-1l-2.2-5-2.2 5h4.4z" fill="#507134"/>
    <path d="m239.7 2.4l2.7 8.4 2.6-8.4h1.1l2.6 8.4 2.7-8.4h1.1l-3.2 9.7h-1.2l-2.6-8.2-2.6 8.2h-1.2l-3.2-9.7h1.2z" fill="#507134"/>
    <path d="m263.1 7.2c0 2.7-2.2 4.9-5.1 4.9-2.8 0-5.1-2.2-5.1-4.9s2.2-4.9 5.1-4.9c2.9 0.1 5.1 2.2 5.1 4.9zm-9 0c0 2.1 1.8 3.9 4 3.9s3.9-1.7 3.9-3.9c0-2.1-1.8-3.8-3.9-3.8-2.2 0-4 1.7-4 3.8z" fill="#507134"/>
    <path d="m265.9 12.1c-1.1 0-2-0.5-2.7-1.4l0.6-0.90001c0.6 0.70001 1.4 1.1 2.1 1.1 1.1 0 1.7-0.7 1.7-1.9v-5.7h-3.5v-1h4.6v6.8c0 2-1.1 3-2.8 3z" fill="#507134"/>
    <path d="m280.6 7.2c0 2.7-2.2 4.9-5.1 4.9-2.8 0-5.1-2.2-5.1-4.9s2.2-4.9 5.1-4.9c2.8 0.1 5.1 2.2 5.1 4.9zm-9 0c0 2.1 1.8 3.9 4 3.9s3.9-1.7 3.9-3.9c0-2.1-1.8-3.8-3.9-3.8-2.2 0-4 1.7-4 3.8z" fill="#507134"/>
    <path d="m289.8 4.8c0 1.1-0.7 2-1.8 2.2 1.4 0.2 2.2 1.1 2.2 2.4 0 1.6-1.3 2.6-3.5 2.6h-4.1v-9.6h4.1c1.9 0 3.1 0.9 3.1 2.4zm-1.1 0.2c0-1-0.8-1.6-2.1-1.6h-2.9v3.2h2.9c1.3 0 2.1-0.6 2.1-1.6zm0.4 4.3c0-1.1-0.9-1.7-2.5-1.7h-2.9v3.4h2.9c1.6 0.1 2.5-0.6 2.5-1.7z" fill="#507134"/>
    <path d="m293.6 2.4h-1.1v9.7h1.1v-9.7z" fill="#507134"/>
    <path d="m148 41.5c0 9.8-7.1 16.2-17.8 16.2h-13.9v-32.4h14.2c10.5 0 17.5 6.5 17.5 16.2zm-9.8 0.1c0-5.2-3.2-8.7-7.8-8.7h-4.4v17.3h4.9c4.3 0 7.3-3.4 7.3-8.6z" fill="#507134"/>
    <path d="m178.1 25.3v7.4h-16.9v5.1h15.3v7.4h-15.3v5.2h17.4v7.4h-27v-32.5h26.5z" fill="#507134"/>
    <path d="m195.7 32.5c-1.6 0-2.7 0.6-2.7 1.8 0 4.8 16.9 1.9 16.9 13.6 0 6.9-6.1 10.2-13.4 10.2-5.5 0-11.5-1.9-15.6-5.1l3.6-7.3c3.3 2.8 8.7 4.9 12.1 4.9 2 0 3.3-0.7 3.3-2.2 0-4.9-16.9-1.8-16.9-13.2 0-6.2 5.3-10.2 13.4-10.2 4.9 0 10 1.5 13.6 3.7l-3.6 7.4c-3.2-1.9-7.9-3.6-10.7-3.6z" fill="#507134"/>
    <path d="m223.1 25.3h-9.6v32.4h9.6v-32.4z" fill="#507134"/>
    <path d="m249.8 41h8.3v13c-3.5 2.4-9.3 4.2-13.9 4.2-10 0-17.4-7.1-17.4-16.6s7.6-16.5 18.1-16.5c4.9 0 10.3 1.9 13.7 4.9l-5.5 6.6c-2.2-2.1-5.5-3.5-8.3-3.5-4.7 0-8.2 3.7-8.2 8.5 0 5 3.6 8.6 8.3 8.6 1.3 0 3.1-0.5 4.9-1.2v-8z" fill="#507134"/>
    <path d="m271.1 25.3l13.7 18.2v-18.2h8.8v32.5h-8.2l-13.7-18.1v18.1h-8.8v-32.5h8.2z" fill="#507134"/>
    <path d="m132.8 78.4c-4.4 0-7.7 3.6-7.7 8.3 0 4.8 3.3 8.4 7.7 8.4 2.5 0 5.5-1.5 7.7-3.7l5.6 5.9c-3.5 3.8-8.8 6.2-13.7 6.2-9.9 0-17.1-7.1-17.1-16.7 0-9.4 7.4-16.4 17.4-16.4 4.9 0 10.1 2.2 13.4 5.7l-5.6 6.6c-2-2.6-5-4.3-7.7-4.3z" fill="#507134"/>
    <path d="m182 86.9c0 9.5-7.5 16.7-17.7 16.7s-17.7-7.1-17.7-16.7c0-9.5 7.5-16.5 17.7-16.5s17.7 7 17.7 16.5zm-25.5 0c0 4.9 3.7 8.6 8 8.6s7.7-3.7 7.7-8.6-3.4-8.5-7.7-8.5c-4.3 0.1-8 3.6-8 8.5z" fill="#507134"/>
    <path d="m196 70.7l7.8 18 7.8-18h10.3v32.4h-8.4v-19.2l-6.6 16h-6.3l-6.5-16v19.2h-8.4v-32.4h10.3z" fill="#507134"/>
    <path d="m255.3 82.2c0 7.7-4.8 12.2-13.2 12.2h-5.1v8.7h-9.6v-32.4h14.7c8.4 0 13.2 4.2 13.2 11.5zm-9.1 0.3c0-2.8-1.7-4.4-4.5-4.4h-4.7v8.9h4.6c2.9 0 4.6-1.6 4.6-4.5z" fill="#507134"/>
    <path d="m285.5 70.7v7.4h-16.9v5.1h15.3v7.4h-15.3v5.1h17.4v7.4h-27v-32.4h26.5z" fill="#507134"/>
    <path d="m316.7 70.7v7.7h-9.5v24.7h-9.6v-24.7h-9.4v-7.7h28.5z" fill="#507134"/>
    <path d="m329.3 70.7h-9.6v32.4h9.6v-32.4z" fill="#507134"/>
    <path d="m360.8 70.7v7.7h-9.4v24.7h-9.7v-24.7h-9.4v-7.7h28.5z" fill="#507134"/>
    <path d="m373.4 70.7h-9.6v32.4h9.6v-32.4z" fill="#507134"/>
    <path d="m409.6 86.9c0 9.5-6.9 16.7-16.2 16.7-9.4 0-16.2-7.1-16.2-16.7 0-9.5 6.9-16.5 16.2-16.5s16.2 7 16.2 16.5zm-23.5 0c0 4.9 3.4 8.6 7.3 8.6s7.1-3.7 7.1-8.6-3.1-8.5-7.1-8.5c-3.9 0.1-7.3 3.6-7.3 8.5z" fill="#507134"/>
    <path d="m421.4 70.7l13.8 18.1v-18.1h8.8v32.4h-8.2l-13.8-18v18h-8.8v-32.4h8.2z" fill="#507134"/>
</svg>
